<?xml version="1.0" encoding="UTF-8" standalone="no"?>

<svg 
    version="1.1" 
    xml:space="preserve"
    xmlns:svg="http://www.w3.org/2000/svg"
    xmlns="http://www.w3.org/2000/svg"

    height="30250" 
    width="30250" 
    viewBox="-100 -100 302500 302500" 

    stroke-miterlimit="10" 
    style="clip-rule:evenodd;fill-rule:nonzero;stroke-linecap:round;stroke-linejoin:round" 
>
    <defs>
        <filter style="color-interpolation-filters:sRGB" id="drop1" x="-0.13346522" y="-0.10046644" width="1.2929916" height="1.2205469">
            <feFlood result="flood" in="SourceGraphic" flood-opacity="0.498039" flood-color="rgb(0,0,0)" />
            <feGaussianBlur result="blur" in="SourceGraphic" stdDeviation="10" />
            <feOffset result="offset" in="blur" dx="5" dy="5" />
            <feComposite result="comp1" operator="in" in="flood" in2="offset" />
            <feComposite result="comp2" operator="over" in="SourceGraphic" in2="comp1" />
        </filter>
        <filter style="color-interpolation-filters:sRGB" id="drop2" x="-0.048449256" y="-0.094968378" width="1.1069921" height="1.2097218">
            <feFlood result="flood" in="SourceGraphic" flood-opacity="0.498039" flood-color="rgb(0,0,0)" />
            <feGaussianBlur result="blur" in="SourceGraphic" stdDeviation="10" />
            <feOffset result="offset" in="blur" dx="5" dy="5" />
            <feComposite result="comp1" operator="in" in="flood" in2="offset" />
            <feComposite result="comp2" operator="over" in="SourceGraphic" in2="comp1" />
        </filter>
    </defs>
    <g opacity="1">
        <path d="M 10,275 C 10,128.645 128.645,10 275,10 421.355,10 540,128.645 540,275 540,421.355 421.355,540 275,540 128.645,540 10,421.355 10,275 Z" 
            fill-rule="nonzero" 
            fill="#4b61a7" 
            opacity="1" 
            stroke-linecap="butt" 
            stroke-linejoin="round" 
            stroke-width="10" 
            stroke="#f7af85" 
            style="display:inline" 
        />

        <g fill="#f7af85" stroke="none" style="display:inline;filter:url(#drop2)">
            <path d="m 31.0653,234.095 10.922,0.911 -1.5396,18.454 50.7601,4.235 -1.0823,12.973 -50.7601,-4.235 -1.5467,18.538 -10.922,-0.911 z" />
            <path d="m 81.7971,199.436 -5.038,12.366 22.4779,9.158 -4.7687,11.705 -57.3223,-23.352 11.4543,-28.117 c 1.7149,-3.987 3.467,-6.878 5.2563,-8.673 1.7893,-1.795 3.8717,-3.085 6.2473,-3.871 1.9588,-0.653 3.9676,-0.983 6.0263,-0.991 2.0587,-0.008 4.2158,0.448 6.4714,1.367 2.7222,1.109 5.1191,2.886 7.1909,5.333 2.0717,2.446 3.0077,5.472 2.808,9.079 2.1403,-2.212 4.4136,-3.47 6.8199,-3.774 2.4063,-0.305 5.6187,0.362 9.6372,1.999 l 3.8504,1.568 c 2.618,1.067 4.436,1.687 5.454,1.86 1.605,0.29 2.989,0.008 4.154,-0.847 l 1.439,0.586 -5.371,13.183 c -1.418,-0.155 -2.548,-0.312 -3.389,-0.474 -1.734,-0.343 -3.449,-0.846 -5.145,-1.506 l -5.3592,-2.093 c -3.6767,-1.437 -6.3857,-1.762 -8.127,-0.976 -1.7414,0.787 -3.3302,2.944 -4.7667,6.47 z m -7.4596,-11.518 c -0.1172,-2.829 -1.7832,-4.898 -4.998,-6.208 -3.4741,-1.415 -6.2774,-1.212 -8.41,0.609 -1.2022,1.022 -2.3314,2.829 -3.3876,5.422 l -5.6717,13.922 15.4,6.274 5.5292,-13.572 c 1.0984,-2.697 1.6111,-4.846 1.5381,-6.447 z"  />
            <path d="m 124.962,134.214 -28.7658,-24.899 8.6018,-9.9377 28.766,24.8987 c 4.974,4.306 8.179,8.431 9.614,12.376 2.588,7.276 0.374,14.968 -6.643,23.074 -7.017,8.107 -14.321,11.412 -21.911,9.915 -4.11,-0.855 -8.653,-3.435 -13.627,-7.741 l -28.7653,-24.899 8.6019,-9.938 28.7654,24.899 c 3.218,2.785 5.897,4.438 8.038,4.958 3.651,1.087 7.198,-0.36 10.643,-4.339 3.426,-3.958 4.34,-7.666 2.741,-11.123 -0.822,-2.045 -2.842,-4.459 -6.059,-7.244 z" />
            <path d="m 165.853,57.056 5.803,9.298 -15.711,9.8041 26.967,43.2129 -11.044,6.891 -26.967,-43.2122 -15.781,9.8484 -5.803,-9.298 z" />
            <path d="m 239.128,69.9294 -29.001,7.9357 4.201,15.3507 33.051,-9.0441 2.937,10.7333 -45.242,12.38 -16.337,-59.7013 43.784,-11.9812 2.892,10.5713 -31.592,8.6451 3.469,12.6774 29,-7.9357 z" />
            <path d="m 286.537,71.0343 -13.339,-0.6133 -1.115,24.2459 -12.626,-0.5804 2.842,-61.8312 30.329,1.3942 c 4.33,0.2832 7.641,0.9678 9.931,2.0539 2.29,1.0862 4.202,2.6173 5.737,4.5935 1.27,1.6278 2.253,3.4105 2.949,5.3481 0.695,1.9377 0.987,4.123 0.875,6.556 -0.135,2.9363 -1.008,5.7897 -2.621,8.56 -1.613,2.7703 -4.152,4.6643 -7.618,5.682 2.8,1.2777 4.746,2.9996 5.837,5.1656 1.092,2.166 1.538,5.4164 1.338,9.751 l -0.19,4.1528 c -0.13,2.8245 -0.107,4.7453 0.071,5.7623 0.262,1.6094 0.991,2.82 2.187,3.6316 l -0.071,1.5521 -14.221,-0.6537 c -0.328,-1.3883 -0.557,-2.5058 -0.686,-3.3525 -0.256,-1.7493 -0.356,-3.5334 -0.301,-5.3524 l 0.181,-5.7508 c 0.125,-3.9456 -0.474,-6.6075 -1.798,-7.9855 -1.324,-1.378 -3.888,-2.1544 -7.691,-2.3292 z m 8.361,-10.8815 c 2.627,-1.0562 4.02,-3.3182 4.18,-6.7859 0.172,-3.7474 -0.957,-6.3214 -3.387,-7.7223 -1.365,-0.7913 -3.445,-1.2513 -6.242,-1.3799 l -15.017,-0.6903 -0.764,16.6113 14.64,0.673 c 2.908,0.1338 5.105,-0.1016 6.59,-0.7059 z" />
            <path d="m 366.015,118.885 -23.357,-12.864 29.861,-54.217 23.357,12.8641 c 3.332,1.8993 5.912,3.8313 7.738,5.7959 3.112,3.344 4.927,7.3317 5.444,11.9632 0.403,3.7373 0.083,7.3644 -0.959,10.8813 -1.042,3.5169 -2.347,6.6975 -3.913,9.5425 -3.971,7.209 -8.781,12.518 -14.429,15.927 -7.638,4.582 -15.552,4.618 -23.742,0.107 z m 30.667,-35.7476 c -0.12,-3.9015 -2.755,-7.2703 -7.905,-10.1065 l -10.446,-5.7533 -19.489,35.3844 10.446,5.754 c 5.346,2.944 10.525,2.361 15.538,-1.75 2.746,-2.259 5.22,-5.387 7.421,-9.3838 3.039,-5.5173 4.517,-10.2323 4.435,-14.1448 z" />
            <path d="m 412.053,158.31 c -5.893,-6.597 -8.602,-13.243 -8.125,-19.938 0.228,-8.611 4.486,-16.619 12.775,-24.023 8.455,-7.553 16.891,-10.884 25.307,-9.993 6.706,0.279 13.005,3.717 18.898,10.314 5.893,6.598 8.602,13.244 8.125,19.938 -0.079,8.442 -4.347,16.439 -12.803,23.992 -8.288,7.404 -16.715,10.746 -25.279,10.025 -6.705,-0.279 -13.005,-3.717 -18.898,-10.315 z m 20.542,-1.964 c 4.814,-0.284 9.821,-2.748 15.019,-7.391 5.178,-4.625 8.179,-9.324 9.003,-14.095 0.825,-4.772 -0.47,-9.068 -3.883,-12.888 -3.413,-3.821 -7.545,-5.61 -12.396,-5.369 -4.851,0.242 -9.876,2.685 -15.075,7.329 -5.199,4.644 -8.191,9.362 -8.977,14.156 -0.786,4.793 0.528,9.1 3.941,12.921 3.413,3.821 7.536,5.6 12.368,5.337 z" />
            <path d="m 462.203,199.684 39.37,-18.01 5.381,11.761 -39.18,17.923 c -4.786,2.189 -8.957,3.097 -12.515,2.723 -6.016,-0.634 -10.695,-4.604 -14.037,-11.911 -3.343,-7.306 -3.669,-13.083 -0.979,-17.33 2.691,-4.248 7.345,-7.886 13.964,-10.913 l 1.298,-0.594 5.084,11.112 -1.299,0.594 c -4.306,2.093 -7.149,3.971 -8.528,5.633 -1.38,1.662 -1.429,3.893 -0.148,6.694 1.27,2.775 3.076,4.165 5.418,4.171 1.39,0.011 3.447,-0.607 6.171,-1.853 z" />
            <path d="m 456.917,257.543 c -1.096,-8.779 0.456,-15.786 4.655,-21.021 5.084,-6.954 13.141,-11.12 24.169,-12.497 11.251,-1.404 20.084,0.653 26.5,6.171 5.357,4.043 8.583,10.454 9.679,19.232 1.096,8.778 -0.455,15.785 -4.654,21.021 -4.866,6.898 -12.924,11.05 -24.175,12.454 -11.028,1.377 -19.86,-0.666 -26.495,-6.129 -5.357,-4.043 -8.583,-10.453 -9.679,-19.231 z m 18.015,10.065 c 4.121,2.504 9.64,3.325 16.557,2.461 6.889,-0.86 12.029,-3.018 15.421,-6.474 3.391,-3.456 4.769,-7.726 4.135,-12.81 -0.635,-5.083 -3.016,-8.905 -7.144,-11.465 -4.129,-2.559 -9.651,-3.407 -16.568,-2.544 -6.917,0.863 -12.062,3.043 -15.434,6.539 -3.372,3.496 -4.741,7.786 -4.106,12.87 0.634,5.083 3.014,8.891 7.139,11.423 z" />
        </g>
        <path d="m 189.97408,450.336 c -2.5592,-1.3886 -6.00129,-4.9913 -7.6491,-8.006 -2.75461,-5.03958 -3.03745,-14.04174 -3.51015,-111.71879 -0.28278,-58.43065 -0.0229,-109.63353 0.57746,-113.78418 0.778,-5.37865 2.70806,-9.16311 6.7184,-13.17346 l 5.62681,-5.62681 h 83.08199 c 91.10108,0 87.72174,-0.37049 93.19704,10.21758 2.17807,4.21193 2.53999,20.87332 2.53999,116.93168 v 112.01987 l -3.87558,5.75097 c -2.13155,3.16303 -5.76487,6.70696 -8.07405,7.87542 -3.185,1.61163 -23.48343,2.11407 -84.0891,2.08145 -67.38299,-0.0362 -80.61911,-0.43827 -84.54371,-2.56773 z m 43.0173,-27.22868 c 2.52182,-3.03862 4.22909,-20.49479 2.62826,-26.87298 -1.88146,-7.49638 -5.52009,-9.52971 -17.05323,-9.52971 -14.84764,0 -17.14004,2.71701 -17.14004,20.31481 0,17.47619 1.18059,18.7806 16.998,18.7806 9.17944,0 12.90357,-0.6884 14.56701,-2.69272 z m 56.7032,0.0216 c 1.97909,-1.97909 2.67112,-6.16269 2.67112,-16.1481 0,-17.61179 -2.27189,-20.27619 -17.28912,-20.27619 -15.14748,0 -16.7069,1.89675 -16.7069,20.3211 0,9.16287 0.76788,15.46266 2.03977,16.73455 3.16497,3.16498 25.98068,2.67309 29.28513,-0.63136 z m 57.00493,-0.61674 c 1.08828,-2.03347 1.7596,-20.79374 1.7596,-49.1728 0,-53.84684 0.86925,-51.22717 -16.998,-51.22717 -17.86726,0 -16.99801,-2.61967 -16.99801,51.22717 0,28.37906 0.67132,47.13933 1.75961,49.1728 1.51256,2.82626 3.65198,3.28786 15.2384,3.28786 11.58642,0 13.72584,-0.4616 15.2384,-3.28786 z M 232.12284,358.79494 c 2.81428,-2.05785 3.29954,-4.5193 3.29954,-16.73675 0,-18.77466 -0.99821,-19.94598 -16.99801,-19.94598 -14.42287,0 -15.8325,1.08224 -17.27512,13.26291 -1.22137,10.31249 0.34138,19.70464 3.8649,23.22816 3.43643,3.43642 22.48702,3.57111 27.10869,0.19166 z m 57.59677,-1.36514 c 1.81997,-2.59837 2.64609,-7.73073 2.64609,-16.43921 0,-17.1326 -1.66933,-18.87838 -18.05155,-18.87838 -15.14249,0 -15.94447,0.99223 -15.94447,19.72706 0,17.47106 1.68147,19.36835 17.16507,19.36835 9.99692,0 11.89235,-0.50481 14.18486,-3.77782 z m 56.9799,-65.80226 c 1.01773,-1.90163 1.7596,-15.64106 1.7596,-32.58731 0,-24.87809 -0.4245,-29.76855 -2.81315,-32.40796 -2.63651,-2.91331 -7.10614,-3.1085 -71.18349,-3.1085 -61.50612,0 -68.60456,0.28204 -70.70322,2.80918 -1.78355,2.14769 -2.33288,9.89062 -2.33288,32.88232 0,22.98959 0.54949,30.73584 2.33288,32.88663 2.10123,2.53412 9.22647,2.8135 71.75677,2.8135 66.89769,0 69.48791,-0.11964 71.18349,-3.28786 z"
            style="display:inline;opacity:1;fill:#f7b187;fill-opacity:1;stroke:#f7b087;stroke-width:3.21222;stroke-linecap:round;stroke-linejoin:bevel;stroke-opacity:1;filter:url(#drop1)" />
    </g>
</svg>
